<svg width="375" height="551" viewBox="0 0 375 551" fill="none" xmlns="http://www.w3.org/2000/svg">
<rect width="375" height="541" fill="#7BC2FE"/>
<rect y="482.377" width="59.4972" height="59.4972" fill="#FFF1EE"/>
<rect x="59.4971" y="482.377" width="59.4972" height="59.4972" fill="#EEC056"/>
<rect x="118.994" y="482.377" width="59.4972" height="59.4972" fill="#057B61"/>
<rect x="178.988" y="482.873" width="58.5055" height="58.5055" fill="#D9D9D9" stroke="black" stroke-width="0.991619"/>
<rect y="422.88" width="59.4972" height="59.4972" fill="#FFF1EE"/>
<rect x="59.4971" y="422.88" width="59.4972" height="59.4972" fill="#302007"/>
<rect x="178.492" y="422.88" width="59.4972" height="59.4972" fill="#F35228"/>
<rect y="364.374" width="59.4972" height="59.4972" fill="#057B61"/>
<rect x="59.4971" y="364.374" width="59.4972" height="59.4972" fill="#302007"/>
<rect x="118.994" y="364.374" width="59.4972" height="59.4972" fill="#EFB4C5"/>
<rect y="304.877" width="59.4972" height="59.4972" fill="#F35228"/>
<rect x="59.4971" y="304.877" width="59.4972" height="59.4972" fill="#057B61"/>
<rect x="59.4971" y="245.38" width="59.4972" height="59.4972" fill="#EEC056"/>
<rect x="178.988" y="482.873" width="58.5055" height="58.5055" fill="#EFB4C5" stroke="#E7582A" stroke-width="0.991619"/>
<path d="M190.887 482.873L178.987 494.38" stroke="#E7582A" stroke-width="0.991619"/>
<path d="M178.99 499.923L196.837 482.873" stroke="#E7582A" stroke-width="0.991619"/>
<path d="M179.168 506.672L203.778 482.873" stroke="#E7582A" stroke-width="0.991619"/>
<path d="M179.155 513.613L210.72 482.873" stroke="#E7582A" stroke-width="0.991619"/>
<path d="M178.986 520.703L217.66 482.873" stroke="#E7582A" stroke-width="0.991619"/>
<path d="M178.891 527.725L226.585 482.873" stroke="#E7582A" stroke-width="0.991619"/>
<path d="M233.03 482.873L179.083 534.933" stroke="#E7582A" stroke-width="0.991619"/>
<path d="M180.943 541.379L237.42 486.84" stroke="#E7582A" stroke-width="0.991619"/>
<path d="M237.493 496.481L190.887 541.488" stroke="#E7582A" stroke-width="0.991619"/>
<path d="M237.493 504.244L199.04 541.379" stroke="#E7582A" stroke-width="0.991619"/>
<path d="M209.096 541.379L237.335 514.109" stroke="#E7582A" stroke-width="0.991619"/>
<path d="M215.182 541.316L237.493 519.77" stroke="#E7582A" stroke-width="0.991619"/>
<path d="M237.496 529.479L225.098 541.451" stroke="#E7582A" stroke-width="0.991619"/>
<path d="M237.493 538.715L234.518 541.588" stroke="#E7582A" stroke-width="0.991619"/>
<rect y="245.38" width="59.4972" height="59.4972" fill="#F6A2BF"/>
<rect y="186" width="59" height="59" fill="#F6A2BF"/>
<rect x="118.994" y="422.88" width="59.4972" height="59.4972" fill="#331F06"/>
<rect x="0.991699" y="503.929" width="57.2834" height="37.6865" fill="#057B61"/>
<path d="M39.1806 504.18C39.1806 504.534 39.1806 513.07 39.1806 522.521M39.1806 522.521C39.1806 529.2 39.1806 536.336 39.1806 541.364V522.521ZM39.1806 522.521H1.49414M39.1806 522.521H58.0238" stroke="#D9FFFF" stroke-width="0.991619"/>
<circle cx="39.1808" cy="522.521" r="1.50746" fill="#D9FFFF"/>
<path d="M39.1812 522.379C40.1024 518.862 42.8493 512.48 46.4672 515.093C50.9896 518.36 43.7035 522.379 39.1812 522.379Z" stroke="#D9FFFF" stroke-width="0.991619"/>
<path d="M39.1809 523.024C35.6004 522.12 29.1045 519.427 31.7642 515.879C35.0889 511.445 39.1809 518.589 39.1809 523.024Z" stroke="#D9FFFF" stroke-width="0.991619"/>
<path d="M38.9841 522.239C38.778 525.869 37.3497 532.668 33.2859 530.824C28.2061 528.518 34.5514 523.135 38.9841 522.239Z" stroke="#D9FFFF" stroke-width="0.991619"/>
<path d="M39.2412 522.453C42.9007 523.038 49.6543 525.211 47.3927 529.22C44.5657 534.231 39.7214 527.124 39.2412 522.453Z" stroke="#D9FFFF" stroke-width="0.991619"/>
<circle cx="29.2776" cy="474.56" r="6.07721" fill="#D89055" stroke="#D89055" stroke-width="0.991619"/>
<rect x="5.4502" y="468.809" width="48.476" height="5.7514" fill="#3C7971"/>
<path d="M16.1314 456.485C16.1314 466.755 5.86101 468.809 5.4502 468.809H53.9262C46.6959 468.809 43.2451 460.593 42.4235 456.485C42.2865 451.281 42.0126 440.627 42.0126 439.642C41.191 433.479 36.6721 429.782 25.9909 431.014C15.3097 432.247 16.1314 446.215 16.1314 456.485Z" fill="#FF5837" stroke="#FF5837" stroke-width="0.991619"/>
<circle cx="29.6885" cy="427.317" r="2.70571" stroke="#FF5837" stroke-width="1.98324"/>
<rect x="29.0376" y="445.804" width="0.596278" height="15.6109" fill="#FFEAC8"/>
<rect x="34.6343" y="447.592" width="0.596278" height="15.5032" transform="rotate(45 34.6343 447.592)" fill="#FFEAC8"/>
<rect x="23.6719" y="448.014" width="0.596278" height="15.5032" transform="rotate(-45 23.6719 448.014)" fill="#FFEAC8"/>
<rect x="37.3857" y="452.933" width="0.596278" height="15.5032" transform="rotate(90 37.3857 452.933)" fill="#FFEAC8"/>
<rect x="152.642" y="487.907" width="5.81981" height="7.95372" transform="rotate(91.5124 152.642 487.907)" fill="#7D5C24"/>
<circle cx="148.697" cy="486.028" r="1.09658" transform="rotate(134.96 148.697 486.028)" stroke="#7D5C24" stroke-width="1.98324"/>
<circle cx="148.718" cy="515.174" r="23.6057" transform="rotate(134.96 148.718 515.174)" fill="#E3DFDC"/>
<path d="M168.937 527.307L128.179 526.787C125.033 521.675 122.908 512.496 128.485 502.816L169.242 503.336C174.247 512.066 172.605 521.449 168.937 527.307Z" fill="#DB3936"/>
<path d="M128.801 515.063L134.884 507.709L140.967 515.063L134.884 522.417L128.801 515.063Z" fill="#E3DFDC"/>
<path d="M156.403 515.063L162.486 507.709L168.569 515.063L162.486 522.417L156.403 515.063Z" fill="#E3DFDC"/>
<path d="M142.601 514.881L148.684 507.527L154.767 514.881L148.684 522.236L142.601 514.881Z" fill="#E3DFDC"/>
<rect width="27.2695" height="38.1562" transform="matrix(-1 0 0 1 149.239 384.22)" fill="#F7FCFF"/>
<path d="M176.508 384.22H149.239V422.376L176.508 420.579V384.22Z" fill="#4677DE"/>
<path d="M135.604 370.162L121.97 384.22H149.239L135.604 370.162Z" fill="#0E2461"/>
<path d="M162.874 370.162H135.657L149.239 384.22H176.508L162.874 370.162Z" fill="#FD6E12"/>
<rect width="6.44745" height="6.13036" transform="matrix(-1 0 0 1 143.954 388.659)" fill="#3F74E0"/>
<rect width="7.08162" height="6.13036" transform="matrix(-1 0 0 1 149.873 366.357)" fill="#FD6E12"/>
<rect width="6.44745" height="6.13036" transform="matrix(-1 0 0 1 133.702 388.659)" fill="#3F74E0"/>
<path d="M142.579 407.42C142.579 403.655 139.527 400.603 135.762 400.603C131.997 400.603 128.944 403.655 128.944 407.42V422.376H142.579V407.42Z" fill="#0D1F5A"/>
<path d="M62.4668 365.366H117.997V395.114C117.997 410.449 105.567 422.88 90.2321 422.88C74.8978 422.88 62.4668 410.449 62.4668 395.114V365.366Z" fill="#FA542A"/>
<path d="M62.9936 367.845L62.9936 392.385H61.3556C54.5789 392.385 49.0852 386.892 49.0852 380.115C49.0852 373.338 54.5789 367.845 61.3556 367.845H62.9936Z" stroke="#FA542A" stroke-width="4.9581"/>
<path d="M89.6968 315.785C85.9972 315.785 79.0428 318.974 79.3387 326.947C79.6347 334.919 86.3674 337.178 89.6968 337.311C92.9028 337.178 99.3147 339.224 99.3147 348.473C99.3147 357.721 92.6556 359.236 89.6963 359.236" stroke="white" stroke-width="2.97486"/>
<rect y="502.875" width="59.4972" height="39.1429" fill="#057B61"/>
<path d="M39.6648 503.136C39.6648 503.503 39.6648 512.369 39.6648 522.186M39.6648 522.186C39.6648 529.123 39.6648 536.534 39.6648 541.757V522.186ZM39.6648 522.186H0.521973M39.6648 522.186H59.2363" stroke="#D9FFFF" stroke-width="0.991619"/>
<circle cx="39.6643" cy="522.186" r="1.56571" fill="#D9FFFF"/>
<path d="M39.6655 522.038C40.6224 518.385 43.4754 511.757 47.2331 514.471C51.9303 517.863 44.3627 522.038 39.6655 522.038Z" stroke="#D9FFFF" stroke-width="0.991619"/>
<path d="M39.6654 522.707C35.9466 521.769 29.1996 518.971 31.9622 515.287C35.4153 510.681 39.6654 518.101 39.6654 522.707Z" stroke="#D9FFFF" stroke-width="0.991619"/>
<path d="M39.4608 521.892C39.2467 525.663 37.7632 532.725 33.5423 530.809C28.2662 528.414 34.8567 522.823 39.4608 521.892Z" stroke="#D9FFFF" stroke-width="0.991619"/>
<path d="M39.7275 522.115C43.5284 522.723 50.543 524.98 48.194 529.143C45.2578 534.348 40.2263 526.966 39.7275 522.115Z" stroke="#D9FFFF" stroke-width="0.991619"/>
<rect x="152.642" y="487.907" width="5.81981" height="7.95372" transform="rotate(91.5124 152.642 487.907)" fill="#7D5C24"/>
<circle cx="148.697" cy="486.028" r="1.09658" transform="rotate(134.96 148.697 486.028)" stroke="#7D5C24" stroke-width="1.98324"/>
<circle cx="148.718" cy="515.174" r="23.6057" transform="rotate(134.96 148.718 515.174)" fill="#E3DFDC"/>
<path d="M168.937 527.307L128.179 526.787C125.033 521.675 122.908 512.496 128.485 502.816L169.242 503.336C174.247 512.066 172.605 521.449 168.937 527.307Z" fill="#F35228"/>
<path d="M128.801 515.063L134.884 507.709L140.967 515.063L134.884 522.417L128.801 515.063Z" fill="#E3DFDC"/>
<path d="M156.403 515.063L162.486 507.709L168.569 515.063L162.486 522.417L156.403 515.063Z" fill="#E3DFDC"/>
<path d="M142.601 514.881L148.684 507.527L154.767 514.881L148.684 522.236L142.601 514.881Z" fill="#E3DFDC"/>
<path d="M89.2461 515.697H118.995V541.874H89.2461V515.697Z" fill="#416DE0"/>
<path d="M59.4971 515.533L89.2456 515.208V541.874L59.4971 539.642V515.533Z" fill="#2B41A2"/>
<path d="M104.12 494.276L118.995 515.697H89.2461L104.12 494.276Z" fill="#FF6C0D"/>
<path d="M74.3714 494.276H104.236L89.2457 515.697H59.4971L74.3714 494.276Z" fill="#0C1F58"/>
<rect x="94.8027" y="522.701" width="7.29245" height="9.61069" fill="#11276C"/>
<rect x="106.261" y="522.701" width="7.29245" height="9.61069" fill="#11276C"/>
<rect width="27.2695" height="38.1562" transform="matrix(-1 0 0 1 149.239 384.22)" fill="#F7FCFF"/>
<path d="M176.508 384.22H149.239V422.376L176.508 420.579V384.22Z" fill="#4677DE"/>
<path d="M135.604 370.162L121.97 384.22H149.239L135.604 370.162Z" fill="#0E2461"/>
<path d="M162.874 370.162H135.657L149.239 384.22H176.508L162.874 370.162Z" fill="#FD6E12"/>
<rect width="6.44745" height="6.13036" transform="matrix(-1 0 0 1 143.954 388.659)" fill="#3F74E0"/>
<rect width="7.08162" height="6.13036" transform="matrix(-1 0 0 1 149.873 366.357)" fill="#FD6E12"/>
<rect width="6.44745" height="6.13036" transform="matrix(-1 0 0 1 133.702 388.659)" fill="#3F74E0"/>
<path d="M142.579 407.42C142.579 403.655 139.527 400.603 135.762 400.603C131.997 400.603 128.944 403.655 128.944 407.42V422.376H142.579V407.42Z" fill="#0D1F5A"/>
<rect x="59.4971" y="442.712" width="59.4968" height="39.6645" fill="#EB512C"/>
<path d="M64.4551 472.46L69.4132 482.377H59.4971L64.4551 472.46Z" fill="#FF9FAB"/>
<path d="M69.1534 462.544L74.1114 472.461H64.1953L69.1534 462.544Z" fill="#FF9FAB"/>
<path d="M64.4551 452.628L69.4132 462.544H59.4971L64.4551 452.628Z" fill="#FF9FAB"/>
<path d="M64.7161 452.628L59.4971 442.712V452.628H64.7161Z" fill="#FF9FAB"/>
<path d="M69.6749 442.712L74.6329 452.628H64.7168L69.6749 442.712Z" fill="#FF9FAB"/>
<path d="M79.5909 442.712L84.5489 452.628H74.6328L79.5909 442.712Z" fill="#FF9FAB"/>
<path d="M89.5064 442.712L94.4645 452.628H84.5483L89.5064 442.712Z" fill="#FF9FAB"/>
<path d="M99.4239 442.712L104.382 452.628H94.4658L99.4239 442.712Z" fill="#FF9FAB"/>
<path d="M109.339 442.712L114.297 452.628H104.381L109.339 442.712Z" fill="#FF9FAB"/>
<path d="M118.994 443.234L114.297 452.628H118.994V443.234Z" fill="#FF9FAB"/>
<path d="M74.3711 452.628L79.3292 462.544H69.4131L74.3711 452.628Z" fill="#FF9FAB"/>
<path d="M84.2881 452.628L89.2462 462.544H79.3301L84.2881 452.628Z" fill="#FF9FAB"/>
<path d="M94.2042 452.628L99.1622 462.544H89.2461L94.2042 452.628Z" fill="#FF9FAB"/>
<path d="M104.119 452.628L109.077 462.544H99.1606L104.119 452.628Z" fill="#FF9FAB"/>
<path d="M114.037 452.628L109.079 462.544H118.995L118.18 460.914L114.037 452.628Z" fill="#FF9FAB"/>
<path d="M79.0679 462.544L84.026 472.461H74.1099L79.0679 462.544Z" fill="#FF9FAB"/>
<path d="M88.9844 462.544L93.9425 472.461H84.0264L88.9844 462.544Z" fill="#FF9FAB"/>
<path d="M98.9014 462.544L103.859 472.461H93.9434L98.9014 462.544Z" fill="#FF9FAB"/>
<path d="M108.816 462.544L113.775 472.461H103.858L108.816 462.544Z" fill="#FF9FAB"/>
<path d="M118.994 462.544L113.775 472.461H118.994V462.544Z" fill="#FF9FAB"/>
<path d="M64.4551 472.461L59.4971 462.544V472.461H64.4551Z" fill="#FF9FAB"/>
<path d="M64.4551 472.461L59.4971 462.544V472.461H64.4551Z" fill="#FF9FAB"/>
<path d="M73.8492 472.46L78.8072 482.377H68.8911L73.8492 472.46Z" fill="#FF9FAB"/>
<path d="M83.2432 472.46L88.2013 482.377H78.2852L83.2432 472.46Z" fill="#FF9FAB"/>
<path d="M92.6382 472.46L97.5963 482.377H87.6802L92.6382 472.46Z" fill="#FF9FAB"/>
<path d="M102.032 472.46L106.99 482.377H97.0737L102.032 472.46Z" fill="#FF9FAB"/>
<path d="M111.426 472.46L116.384 482.377H106.468L111.426 472.46Z" fill="#FF9FAB"/>
<path d="M118.994 476.636L115.863 482.377H118.994V476.636Z" fill="#FF9FAB"/>
<path d="M61.145 364.461H118.994V395.451C118.994 411.426 106.044 424.376 90.0694 424.376C74.0949 424.376 61.145 411.426 61.145 395.451V364.461Z" fill="#FA542A"/>
<path d="M61.7993 366.94L61.7993 392.712H59.9894C52.8726 392.712 47.1033 386.943 47.1033 379.826C47.1033 372.709 52.8726 366.94 59.9894 366.94H61.7993Z" stroke="#FA542A" stroke-width="4.9581"/>
<path d="M89.5114 312.81C85.6573 312.81 78.4127 316.132 78.721 324.437C79.0293 332.743 86.0431 335.096 89.5114 335.235C92.8512 335.096 99.5308 337.228 99.5308 346.862C99.5308 356.497 92.5937 358.075 89.5109 358.075" stroke="white" stroke-width="2.97486"/>
<ellipse cx="208.24" cy="450.825" rx="28.3394" ry="27.9458" fill="#FEAFC1"/>
<circle cx="208.241" cy="448.07" r="3.14883" fill="#F8F9FB"/>
<circle cx="194.071" cy="440.198" r="3.14883" fill="#F8F9FB"/>
<circle cx="216.899" cy="433.901" r="3.14883" fill="#F8F9FB"/>
<circle cx="226.347" cy="450.432" r="3.14883" fill="#F8F9FB"/>
<circle cx="194.071" cy="455.942" r="3.14883" fill="#F8F9FB"/>
<circle cx="214.537" cy="459.879" r="3.14883" fill="#F8F9FB"/>
<path d="M184.653 466.176H231.857L235.793 482.707H179.901L184.653 466.176Z" fill="#00672C"/>
<path d="M190.528 472.474C193.789 472.474 196.432 469.654 196.432 466.176H184.624C184.624 469.654 187.267 472.474 190.528 472.474Z" fill="#F8F9FB"/>
<path d="M202.336 472.474C205.597 472.474 208.24 469.654 208.24 466.176H196.432C196.432 469.654 199.075 472.474 202.336 472.474Z" fill="#F8F9FB"/>
<path d="M214.144 472.474C217.405 472.474 220.048 469.654 220.048 466.176H208.24C208.24 469.654 210.884 472.474 214.144 472.474Z" fill="#F8F9FB"/>
<path d="M225.952 472.474C229.213 472.474 231.856 469.654 231.856 466.176H220.048C220.048 469.654 222.692 472.474 225.952 472.474Z" fill="#F8F9FB"/>
<rect x="178.988" y="482.873" width="58.5055" height="58.5055" fill="#EFB4C5" stroke="#E7582A" stroke-width="0.991619"/>
<path d="M190.887 482.873L178.987 494.38" stroke="#E7582A" stroke-width="0.991619"/>
<path d="M178.99 499.923L196.837 482.873" stroke="#E7582A" stroke-width="0.991619"/>
<path d="M179.168 506.672L203.778 482.873" stroke="#E7582A" stroke-width="0.991619"/>
<path d="M179.155 513.613L210.72 482.873" stroke="#E7582A" stroke-width="0.991619"/>
<path d="M178.986 520.703L217.66 482.873" stroke="#E7582A" stroke-width="0.991619"/>
<path d="M178.891 527.725L226.585 482.873" stroke="#E7582A" stroke-width="0.991619"/>
<path d="M233.03 482.873L179.083 534.933" stroke="#E7582A" stroke-width="0.991619"/>
<path d="M180.943 541.379L237.42 486.84" stroke="#E7582A" stroke-width="0.991619"/>
<path d="M237.493 496.481L190.887 541.488" stroke="#E7582A" stroke-width="0.991619"/>
<path d="M237.493 504.244L199.04 541.379" stroke="#E7582A" stroke-width="0.991619"/>
<path d="M209.096 541.379L237.335 514.109" stroke="#E7582A" stroke-width="0.991619"/>
<path d="M215.182 541.316L237.493 519.77" stroke="#E7582A" stroke-width="0.991619"/>
<path d="M237.496 529.479L225.098 541.451" stroke="#E7582A" stroke-width="0.991619"/>
<path d="M237.493 538.715L234.518 541.588" stroke="#E7582A" stroke-width="0.991619"/>
<rect x="157.667" y="343.55" width="20.824" height="20.824" fill="#F6A2BF"/>
<g clip-path="url(#clip0_31_2)">
<rect x="237.989" y="501.218" width="39.6648" height="40.6564" fill="#F6A2BF"/>
<rect x="240.837" y="500.226" width="0.8216" height="9.39363" fill="#F35228"/>
<rect x="245.077" y="502.239" width="0.8216" height="9.32882" transform="rotate(60 245.077 502.239)" fill="#F35228"/>
<rect x="236.998" y="502.95" width="0.8216" height="9.32882" transform="rotate(-60 236.998 502.95)" fill="#F35228"/>
<rect x="247.887" y="509.681" width="0.8216" height="9.39363" transform="rotate(-90 247.887 509.681)" fill="#F35228"/>
<rect x="249.9" y="505.443" width="0.8216" height="9.32882" transform="rotate(-30 249.9 505.443)" fill="#F35228"/>
<rect x="250.611" y="513.522" width="0.8216" height="9.32882" transform="rotate(-150 250.611 513.522)" fill="#F35228"/>
<rect x="262.34" y="513.522" width="0.8216" height="9.39363" fill="#F35228"/>
<rect x="266.579" y="515.535" width="0.8216" height="9.32882" transform="rotate(60 266.579 515.535)" fill="#F35228"/>
<rect x="258.5" y="516.247" width="0.8216" height="9.32882" transform="rotate(-60 258.5 516.247)" fill="#F35228"/>
<rect x="275.076" y="524.135" width="0.8216" height="9.39363" fill="#F35228"/>
<rect x="279.314" y="526.147" width="0.8216" height="9.32882" transform="rotate(60 279.314 526.147)" fill="#F35228"/>
<rect x="271.235" y="526.859" width="0.8216" height="9.32882" transform="rotate(-60 271.235 526.859)" fill="#F35228"/>
<rect x="243.106" y="523.665" width="0.8216" height="9.39363" transform="rotate(155.782 243.106 523.665)" fill="#F35228"/>
<rect x="238.417" y="523.568" width="0.8216" height="9.32882" transform="rotate(-144.218 238.417 523.568)" fill="#F35228"/>
<rect x="245.492" y="519.605" width="0.8216" height="9.32882" transform="rotate(95.7823 245.492 519.605)" fill="#F35228"/>
<rect x="245.765" y="527.722" width="0.8216" height="9.39363" transform="rotate(-90 245.765 527.722)" fill="#F35228"/>
<rect x="247.778" y="523.484" width="0.8216" height="9.32882" transform="rotate(-30 247.778 523.484)" fill="#F35228"/>
<rect x="248.49" y="531.563" width="0.8216" height="9.32882" transform="rotate(-150 248.49 531.563)" fill="#F35228"/>
<rect x="258.5" y="534.09" width="0.8216" height="9.39363" transform="rotate(-90 258.5 534.09)" fill="#F35228"/>
<rect x="260.512" y="529.851" width="0.8216" height="9.32882" transform="rotate(-30 260.512 529.851)" fill="#F35228"/>
<rect x="261.224" y="537.93" width="0.8216" height="9.32882" transform="rotate(-150 261.224 537.93)" fill="#F35228"/>
<rect x="252.737" y="536.916" width="0.8216" height="9.39363" fill="#F35228"/>
<rect x="256.976" y="538.929" width="0.8216" height="9.32882" transform="rotate(60 256.976 538.929)" fill="#F35228"/>
<rect x="248.896" y="539.641" width="0.8216" height="9.32882" transform="rotate(-60 248.896 539.641)" fill="#F35228"/>
<rect x="265.628" y="499.235" width="0.8216" height="9.39363" fill="#F35228"/>
<rect x="269.867" y="501.247" width="0.8216" height="9.32882" transform="rotate(60 269.867 501.247)" fill="#F35228"/>
<rect x="261.788" y="501.959" width="0.8216" height="9.32882" transform="rotate(-60 261.788 501.959)" fill="#F35228"/>
<rect x="271.235" y="514.988" width="0.8216" height="9.39363" transform="rotate(-90 271.235 514.988)" fill="#F35228"/>
<rect x="273.248" y="510.749" width="0.8216" height="9.32882" transform="rotate(-30 273.248 510.749)" fill="#F35228"/>
<rect x="273.959" y="518.829" width="0.8216" height="9.32882" transform="rotate(-150 273.959 518.829)" fill="#F35228"/>
<rect x="239.847" y="531.958" width="0.8216" height="9.39363" fill="#F35228"/>
<rect x="244.085" y="533.971" width="0.8216" height="9.32882" transform="rotate(60 244.085 533.971)" fill="#F35228"/>
<rect x="236.006" y="534.682" width="0.8216" height="9.32882" transform="rotate(-60 236.006 534.682)" fill="#F35228"/>
</g>
<rect x="238.485" y="501.714" width="38.6731" height="39.6648" stroke="#F35228" stroke-width="0.991619"/>
<rect x="119" y="364.497" width="59.4972" height="39.1429" transform="rotate(-90 119 364.497)" fill="#F35228"/>
<path d="M138.421 324.671C134.671 323.725 127.867 320.903 130.653 317.188C134.135 312.543 138.421 320.026 138.421 324.671Z" stroke="#D9FFFF"/>
<path d="M119.255 324.709C119.622 324.709 128.488 324.709 138.305 324.709M138.305 324.709C145.242 324.709 152.654 324.709 157.876 324.709H138.305ZM138.305 324.709V363.852M138.305 324.709V305.138" stroke="#D9FFFF" stroke-width="0.991619"/>
<circle cx="138.305" cy="324.71" r="1.56571" transform="rotate(-90 138.305 324.71)" fill="#D9FFFF"/>
<path d="M138.235 324.647C138.842 320.846 141.099 313.831 145.262 316.18C150.467 319.116 143.086 324.148 138.235 324.647Z" stroke="#D9FFFF" stroke-width="0.991619"/>
<circle cx="28.369" cy="348.469" r="15.9052" fill="#EEC056"/>
<circle cx="28.3689" cy="326.673" r="10.0144" fill="#EEC056"/>
<rect x="18.9443" y="316.07" width="18.8506" height="3.53448" fill="#FDFEFD"/>
<rect x="22.385" y="314.209" width="11.9682" height="1.3647" fill="#331F06" stroke="#331F06" stroke-width="0.991619"/>
<rect x="21.8892" y="304.877" width="12.9598" height="8.83621" fill="#FDFEFD"/>
<circle cx="25.1292" cy="324.022" r="2.06178" fill="black"/>
<circle cx="30.4314" cy="324.022" r="2.06178" fill="black"/>
<circle cx="26.0124" cy="339.633" r="1.76724" fill="#FDFEFD"/>
<circle cx="26.0124" cy="345.524" r="1.76724" fill="#FDFEFD"/>
<path d="M38.6787 345.229L46.6313 337.674M50.4603 334.036L46.6313 337.674M46.6313 337.674H51.6385M46.6313 337.674V333.153" stroke="white" stroke-width="1.98324"/>
<path d="M18.3545 345.229L10.4019 337.674M6.57288 334.036L10.4019 337.674M10.4019 337.674H5.39472M10.4019 337.674V333.153" stroke="white" stroke-width="1.98324"/>
<path d="M21.3003 327.557L28.9583 326.084V329.03L21.3003 327.557Z" fill="#F35228"/>
<path d="M25.4238 333.742L28.9583 331.975V335.509L25.4238 333.742Z" fill="#331F06"/>
<path d="M26.6025 333.742L23.0681 335.509V331.975L26.6025 333.742Z" fill="#331F06"/>
<path d="M204.22 364.374H179.901V398.561C179.901 411.992 190.789 422.88 204.22 422.88V364.374Z" fill="white"/>
<path d="M179.901 398.561V399.442C179.901 412.386 190.395 422.88 203.339 422.88H214.617C221.332 422.88 226.776 417.436 226.776 410.72C226.776 404.005 221.332 398.561 214.617 398.561H179.901Z" fill="white"/>
<rect width="24.3186" height="24.3186" transform="matrix(-1 0 0 1 204.22 374.242)" fill="#F35228"/>
<path d="M195.232 382.701L191.532 390.103H198.933L195.232 382.701Z" fill="white"/>
<path d="M188.712 382.701L185.012 390.103H192.413L188.712 382.701Z" fill="white"/>
<path d="M182.192 382.701L185.893 390.103H179.901V387.283L182.192 382.701Z" fill="white"/>
<path d="M197.876 390.103L201.576 382.701L204.22 387.988V390.103H197.876Z" fill="white"/>
<rect width="7.75375" height="24.3186" transform="matrix(-1 0 0 1 211.973 398.561)" fill="#F35228"/>
<rect width="1.98324" height="1.98324" rx="0.991619" transform="matrix(-1 0 0 1 208.927 401.113)" fill="white"/>
<rect width="1.98324" height="1.98324" rx="0.991619" transform="matrix(-1 0 0 1 208.927 406.071)" fill="white"/>
<rect width="1.98324" height="1.98324" rx="0.991619" transform="matrix(-1 0 0 1 208.927 411.029)" fill="white"/>
<rect width="1.98324" height="1.98324" rx="0.991619" transform="matrix(-1 0 0 1 208.927 415.987)" fill="white"/>
<rect width="27.1381" height="9.8684" transform="matrix(-1 0 0 1 205.63 364.374)" fill="white"/>
<path d="M6.03418 271.92H52.2952L46.9316 304.772H11.3978L6.03418 271.92Z" fill="#FFF1EE"/>
<path d="M35.5338 168C35.9808 175.711 41.2997 191.198 58.9996 191.466V202.529C51.1777 202.193 35.5338 199.512 35.5338 191.466V201.188C38.8861 205.21 47.2667 213.926 58.9996 214.262V225.324C51.1777 224.989 35.5338 222.374 35.5338 214.597H24.1362V223.983V239.403H35.5338V223.983C36.2043 225.324 45.1839 236.862 58.9996 237.057V248.454C46.6633 248.723 38.2156 242.532 35.5338 239.403V247.449C35.5338 251.136 48.8088 260.187 58.9996 260.187V271.25C51.1777 270.244 35.5338 266.691 35.5338 260.523H24.1362C22.4601 264.098 15.2863 271.25 0 271.25V260.187C7.37495 260.187 24.1362 250.466 24.1362 247.449V239.403C24.1362 245.035 8.0454 247.784 0 248.454V237.057C10.9954 237.057 20.6722 228.341 24.1362 223.983V214.597C22.0131 218.173 14.2135 225.324 0 225.324V214.597C12.7385 214.597 24.1362 202.529 24.1362 201.188V214.597H35.5338V201.188V191.466H24.1362C23.2423 195.154 17.1635 202.529 0 202.529V191.466C8.0454 191.019 24.1362 185.7 24.1362 168H35.5338Z" fill="#057B61"/>
<path d="M24.1367 168H35.5344V192.137V271.92H24.1367V168Z" fill="#057B61"/>
<path d="M14.0796 271.92H28.159L21.1193 291.363L14.0796 271.92Z" fill="#F35228"/>
<path d="M14.0796 271.92H6.03418L8.60316 288.011L14.0796 271.92Z" fill="#F35228"/>
<path d="M28.1592 271.92H43.5795L35.8694 291.363L28.1592 271.92Z" fill="#F35228"/>
<path d="M52.295 271.92H43.5791L49.6478 288.681L52.295 271.92Z" fill="#F35228"/>
<circle cx="20.7841" cy="196.159" r="6.7045" fill="#FFF1EE"/>
<circle cx="20.7841" cy="243.091" r="6.7045" fill="#FFF1EE"/>
<circle cx="40.227" cy="196.159" r="6.7045" fill="#F35228"/>
<circle cx="40.227" cy="219.625" r="6.7045" fill="#FFF1EE"/>
<circle cx="20.7841" cy="219.625" r="6.7045" fill="#F35228"/>
<circle cx="40.227" cy="243.091" r="6.7045" fill="#F35228"/>
<rect x="239.972" y="491.319" width="33.7151" height="10.4427" rx="5.22136" fill="#F8F8F8"/>
<path d="M256.829 466.257L268.017 491.319H245.64L256.829 466.257Z" fill="#F35228"/>
<circle cx="256.829" cy="459.245" r="7.60826" fill="#F8F8F8"/>
<path d="M60.6836 256.869C60.6836 269.308 68.91 279.392 79.0578 279.392V234.345C68.91 234.345 60.6836 244.429 60.6836 256.869Z" fill="#057B61"/>
<path d="M112.248 268.427C112.248 271.209 110.39 273.465 108.099 273.465V263.092C110.39 263.092 112.248 265.644 112.248 268.427Z" fill="#057B61"/>
<path d="M79.6888 228.053C77.4437 228.933 75.0355 228.575 74.3108 226.727L82.6801 223.446C83.4048 225.295 81.9339 227.173 79.6888 228.053Z" fill="#057B61"/>
<path d="M79.0569 272.28H66.0171L79.0569 304.879V272.28Z" fill="#057B61"/>
<path d="M108.1 272.28H95.0601L108.1 304.879V272.28Z" fill="#057B61"/>
<path d="M78.4644 250.941L108.1 263.092V276.428H78.4644V250.941Z" fill="#057B61"/>
<path d="M59.4971 232.525L79.0567 224.862V237.902H59.4971V232.525Z" fill="#057B61"/>
<path d="M71.0558 223.634C82.9098 219.942 106.152 214.436 99.8025 190.781L102.173 189.892C108.881 217.313 84.3919 221.898 71.6322 225.72L71.0558 223.634Z" fill="#331F06"/>
<path d="M71.0554 223.677C80.0154 219.565 97.5934 212.997 90.1881 195.014L91.9648 194.073C100.034 214.986 81.2153 221.086 71.5554 225.393L71.0554 223.677Z" fill="#331F06"/>
<path d="M71.0555 223.677C79.6498 218.639 81.7243 212.712 79.9465 202.043L82.6133 201.154C84.6879 215.082 81.4279 221.306 71.5555 225.393L71.0555 223.677Z" fill="#331F06"/>
<circle cx="72.9249" cy="230.065" r="0.959124" fill="#FFF1EE"/>
<circle cx="148.53" cy="453.033" r="20.3841" stroke="#057B61" stroke-width="12.354"/>
<circle cx="165.518" cy="441.606" r="3.39735" fill="#331F06"/>
<circle cx="168.915" cy="451.18" r="3.39735" fill="#F35228"/>
<circle cx="166.753" cy="461.063" r="3.39735" fill="#331F06"/>
<circle cx="161.193" cy="468.785" r="3.39735" fill="#F35228"/>
<circle cx="148.532" cy="473.108" r="3.39735" fill="#331F06"/>
<circle cx="137.103" cy="468.785" r="3.39735" fill="#F35228"/>
<circle cx="130.308" cy="461.063" r="3.39735" fill="#331F06"/>
<circle cx="128.456" cy="451.18" r="3.39735" fill="#F35228"/>
<circle cx="131.852" cy="441.606" r="3.39735" fill="#331F06"/>
<path d="M160.576 437.591V425.854L151.002 431.723L160.576 437.591Z" fill="#FFF1EE"/>
<path d="M136.485 437.591V425.854L146.06 431.723L136.485 437.591Z" fill="#FFF1EE"/>
<path d="M143.589 441.606L148.53 436.664L153.472 441.606L148.53 446.547L143.589 441.606Z" fill="#FFF1EE"/>
<path d="M143.589 451.798L148.53 446.856L153.472 451.798L148.53 456.739L143.589 451.798Z" fill="#FFF1EE"/>
<circle cx="148.531" cy="431.722" r="3.7062" fill="#F35228"/>
<rect x="312.902" y="429.169" width="18.9225" height="106.074" rx="9.46127" fill="#FA542A"/>
<rect x="366.966" y="429.169" width="18.9225" height="106.074" rx="9.46127" fill="#FA542A"/>
<rect x="389.347" y="523.457" width="18.9225" height="25.9509" rx="9.46127" transform="rotate(89.3327 389.347 523.457)" fill="#0E2461"/>
<rect x="335.5" y="524.079" width="18.9225" height="25.9509" rx="9.46127" transform="rotate(90.6563 335.5 524.079)" fill="#0E2461"/>
<path d="M295.372 388.07C302.205 361.294 326.323 342.558 353.957 342.558C381.534 342.558 405.616 361.218 412.503 387.921L429.249 452.849H278.841L295.372 388.07Z" fill="#FA542A"/>
<path d="M289.188 411.977L418.844 412.409L421.571 423.222H286.41L289.188 411.977Z" fill="#0E2461"/>
<rect x="346.097" y="410.679" width="16.1112" height="13.7324" fill="#EEC056"/>
<path d="M279.525 442.793L428.126 443.484L430.546 454.471H276.895L279.525 442.793Z" fill="#F8EFFA"/>
<g filter="url(#filter0_d_31_2)">
<rect x="380.305" y="405.971" width="18.9225" height="69.5197" rx="9.46127" transform="rotate(-105.701 380.305 405.971)" fill="#FA542A"/>
</g>
<g filter="url(#filter1_d_31_2)">
<rect width="18.9225" height="69.5197" rx="9.46127" transform="matrix(0.739433 -0.67323 -0.67323 -0.739433 310.493 361.156)" fill="#FA542A"/>
</g>
<rect opacity="0.8" x="369.835" y="322.664" width="15.8895" height="6.37415" rx="3.18708" fill="#FFB1B4" stroke="#FFB1B4" stroke-width="0.870482"/>
<rect opacity="0.8" x="322.798" y="322.664" width="15.8895" height="6.37415" rx="3.18708" fill="#FFB1B4" stroke="#FFB1B4" stroke-width="0.870482"/>
<ellipse cx="333.392" cy="316.228" rx="7.1365" ry="7.73121" fill="#DFE1F4"/>
<ellipse cx="375.13" cy="316.985" rx="7.1365" ry="7.73121" fill="#DFE1F4"/>
<path d="M334.04 308.713H374.697L395.241 362.778H313.766L334.04 308.713Z" fill="#FFADAD"/>
<ellipse cx="341.664" cy="323.96" rx="3.83857" ry="3.78451" fill="#F9BAD3"/>
<ellipse cx="366.749" cy="323.96" rx="3.83857" ry="3.78451" fill="#F9BAD3"/>
<path opacity="0.8" d="M329.012 322.283H379.833L395.241 362.777H313.766L329.012 322.283Z" fill="#F8EFFA"/>
<circle cx="354.26" cy="327.852" r="5.18746" fill="#FF8580" stroke="#FF8580" stroke-width="0.870482"/>
<rect x="330.258" y="300.823" width="48.0038" height="7.45544" rx="3.72772" fill="#F8EFFA" stroke="#F8EFFA" stroke-width="0.870482"/>
<path d="M354.098 258.217L371.561 300.388H337.122L354.098 258.217Z" fill="#FA542A"/>
<circle cx="354.207" cy="326.5" r="4.37649" fill="#0E2461" stroke="#0E2461" stroke-width="0.870482"/>
<path d="M341.501 316.12C339.469 316.163 338.6 318.12 338.42 319.094C338.38 319.31 337.555 319.094 337.555 318.769C337.555 318.111 338.42 315.039 341.772 315.147C345.124 315.255 345.664 318.607 345.61 318.877C345.556 319.148 344.691 319.31 344.637 318.877C344.583 318.445 344.042 316.066 341.501 316.12Z" fill="black" stroke="black" stroke-width="0.870482"/>
<path d="M366.857 316.12C364.825 316.163 363.956 318.12 363.776 319.094C363.736 319.31 362.911 319.094 362.911 318.769C362.911 318.111 363.776 315.039 367.128 315.147C370.48 315.255 371.02 318.607 370.966 318.877C370.912 319.148 370.047 319.31 369.993 318.877C369.939 318.445 369.398 316.066 366.857 316.12Z" fill="black" stroke="black" stroke-width="0.870482"/>
<path d="M334.69 322.229H329.5C329.5 326.392 331.986 334.502 342.259 334.826C350.477 335.086 353.792 328.339 354.423 324.932L350.098 322.229C349.161 323.779 346.281 326.987 342.259 327.419C338.236 327.852 335.537 324.14 334.69 322.229Z" fill="white"/>
<path d="M373.453 322.229H378.643C378.643 326.392 376.156 334.502 365.884 334.826C357.666 335.086 354.35 328.339 353.719 324.932L358.045 322.229C358.982 323.779 361.861 326.987 365.884 327.419C369.906 327.852 372.606 324.14 373.453 322.229Z" fill="white"/>
<circle cx="354.206" cy="322.284" r="5.13612" fill="#FA542A"/>
<circle cx="354.26" cy="258.217" r="3.78178" fill="#F8EFFA" stroke="#F8EFFA" stroke-width="0.870482"/>
<g filter="url(#filter2_d_31_2)">
<rect width="18.9226" height="69.5197" rx="9.46128" transform="matrix(-0.104987 -0.994474 -0.994474 0.104987 336.879 313.001)" fill="#FA542A"/>
</g>
<rect opacity="0.8" width="20.8774" height="16.2852" transform="matrix(-0.104987 -0.994474 -0.994474 0.104987 324.477 315.202)" fill="#F8EFFA"/>
<defs>
<filter id="filter0_d_31_2" x="373.907" y="371.146" width="74.6006" height="39.5832" filterUnits="userSpaceOnUse" color-interpolation-filters="sRGB">
<feFlood flood-opacity="0" result="BackgroundImageFix"/>
<feColorMatrix in="SourceAlpha" type="matrix" values="0 0 0 0 0 0 0 0 0 0 0 0 0 0 0 0 0 0 127 0" result="hardAlpha"/>
<feOffset dy="3.48193"/>
<feGaussianBlur stdDeviation="1.74096"/>
<feComposite in2="hardAlpha" operator="out"/>
<feColorMatrix type="matrix" values="0 0 0 0 0 0 0 0 0 0 0 0 0 0 0 0 0 0 0.25 0"/>
<feBlend mode="normal" in2="BackgroundImageFix" result="effect1_dropShadow_31_2"/>
<feBlend mode="normal" in="SourceGraphic" in2="effect1_dropShadow_31_2" result="shape"/>
</filter>
<filter id="filter1_d_31_2" x="264.112" y="300.916" width="59.9502" height="63.2998" filterUnits="userSpaceOnUse" color-interpolation-filters="sRGB">
<feFlood flood-opacity="0" result="BackgroundImageFix"/>
<feColorMatrix in="SourceAlpha" type="matrix" values="0 0 0 0 0 0 0 0 0 0 0 0 0 0 0 0 0 0 127 0" result="hardAlpha"/>
<feOffset dy="3.48193"/>
<feGaussianBlur stdDeviation="1.74096"/>
<feComposite in2="hardAlpha" operator="out"/>
<feColorMatrix type="matrix" values="0 0 0 0 0 0 0 0 0 0 0 0 0 0 0 0 0 0 0.25 0"/>
<feBlend mode="normal" in2="BackgroundImageFix" result="effect1_dropShadow_31_2"/>
<feBlend mode="normal" in="SourceGraphic" in2="effect1_dropShadow_31_2" result="shape"/>
</filter>
<filter id="filter2_d_31_2" x="263.215" y="295.124" width="76.2051" height="31.1999" filterUnits="userSpaceOnUse" color-interpolation-filters="sRGB">
<feFlood flood-opacity="0" result="BackgroundImageFix"/>
<feColorMatrix in="SourceAlpha" type="matrix" values="0 0 0 0 0 0 0 0 0 0 0 0 0 0 0 0 0 0 127 0" result="hardAlpha"/>
<feOffset dy="3.48193"/>
<feGaussianBlur stdDeviation="1.74096"/>
<feComposite in2="hardAlpha" operator="out"/>
<feColorMatrix type="matrix" values="0 0 0 0 0 0 0 0 0 0 0 0 0 0 0 0 0 0 0.25 0"/>
<feBlend mode="normal" in2="BackgroundImageFix" result="effect1_dropShadow_31_2"/>
<feBlend mode="normal" in="SourceGraphic" in2="effect1_dropShadow_31_2" result="shape"/>
</filter>
<clipPath id="clip0_31_2">
<rect x="237.989" y="501.218" width="39.6648" height="40.6564" fill="white"/>
</clipPath>
</defs>
</svg>
